<svg id="Layer_1" data-name="Layer 1" xmlns="http://www.w3.org/2000/svg" xmlns:xlink="http://www.w3.org/1999/xlink" viewBox="0 0 185.17 28.46"><defs><style>.cls-1{fill:none;}.cls-2{clip-path:url(#clip-path);}.cls-3{fill:rgb(187, 160, 69);}</style><clipPath id="clip-path" transform="translate(-0.87)"><rect class="cls-1" width="186.07" height="31.25"/></clipPath></defs><title>arvometsa2</title><g class="cls-2"><path class="cls-3" d="M173.44,0h1.94V2.81h-1.94Zm4.39,0h1.95V2.81h-1.95Zm-160,28.07-7-18.71c-.18-.53-.37-1.16-.51-1.63-.07.24-.15.53-.24.82L2.81,28.07H.87L9.44,5.16h1.8l8.58,22.91ZM31,16.38c2.78,0,4.57-1.93,4.57-4.93a4.33,4.33,0,0,0-2.49-4.11,6.83,6.83,0,0,0-3-.43h-4.9v9.47Zm5.53,11.69L31.2,18.13H25.13v9.94H23.28V5.16h6.81a8.89,8.89,0,0,1,4.14.7,6,6,0,0,1,3.24,5.59,6.27,6.27,0,0,1-4.36,6.34c.09.14.22.34.36.61l5.22,9.67Zm12.23,0L40.17,5.16h2L49,23.46c.23.64.5,1.49.67,2.07.18-.58.45-1.43.68-2.07l6.86-18.3h2L50.58,28.07Zm59.79,0-1.39-17.34c0-.53-.07-1.26-.09-1.86-.22.62-.52,1.38-.78,2L100.2,23.79H98.48l-6.06-13c-.25-.57-.57-1.39-.81-2a14.66,14.66,0,0,1-.09,2l-1.4,17.33H88.28l1.83-23h1.71l6.6,14.24c.34.71.7,1.58.91,2.09.22-.51.58-1.38.92-2.09l6.6-14.24h1.71l1.83,22.91Zm7.65,0V5.16h12.74V6.91H118v8.73h9v1.75h-9v8.93h11.51v1.75Zm23.46,0V6.91H131.3V5.16h18.58V6.91H141.5V28.07Zm44.45,0-4.39-11.68-2.47-6.62c-.21-.59-.47-1.44-.65-2a1.73,1.73,0,0,1-.11.4L169,28.07h-1.91l8.57-22.91h1.8L186,28.07ZM72.47,6.56a9.67,9.67,0,0,0-9.67,9.69v.2c0,5.73,4.25,10.22,9.67,10.22s9.67-4.49,9.67-10.22a9.68,9.68,0,0,0-9.47-9.89h-.2m0,21.89a11.8,11.8,0,0,1-11.58-12,11.58,11.58,0,1,1,23.16,0,11.8,11.8,0,0,1-11.58,12m86.08,0a9.67,9.67,0,0,1-7-2.87l-.14-.15,1.2-1.43.18.2a8.51,8.51,0,0,0,5.82,2.42c2.81,0,4.77-1.72,4.77-4.19,0-3-2.62-4.08-5.39-5.28-3-1.28-6.09-2.61-6.09-6.36,0-3,2.61-6,7-6a8.55,8.55,0,0,1,5.87,2.15l.13.13-1,1.59-.2-.21A7.34,7.34,0,0,0,159,6.6c-3.19,0-5.09,2.13-5.09,4.19,0,2.64,2.47,3.68,5.09,4.79,3,1.26,6.39,2.69,6.39,6.82,0,3.57-2.78,6.06-6.74,6.06" transform="translate(-0.87)"/></g></svg>