<svg id="Layer_1" data-name="Layer 1" xmlns="http://www.w3.org/2000/svg" xmlns:xlink="http://www.w3.org/1999/xlink" viewBox="0 0 204.66 204.66"><defs><style>.cls-1{fill:none;}.cls-2{clip-path:url(#clip-path);}.cls-3{fill:url(#linear-gradient);}</style><clipPath id="clip-path" transform="translate(69.97 32.36)"><path class="cls-1" d="M32.36,26.58H26.5A17.73,17.73,0,0,0,9.11,40.85L.17,74.22h0A4.62,4.62,0,0,0,0,75.45v.11a5,5,0,0,0,9.73,1.23l8-29.79v86.08a6.87,6.87,0,0,0,13.74,0V81H33.3v52A6.87,6.87,0,1,0,47,133V47l8,29.79h0a4.94,4.94,0,0,0,9.72-1.27h0a4.73,4.73,0,0,0-.16-1.3h0l-9-33.37A17.74,17.74,0,0,0,38.22,26.58ZM32.36,0A11.54,11.54,0,1,0,43.9,11.54,11.54,11.54,0,0,0,32.36,0Z"/></clipPath><linearGradient id="linear-gradient" x1="-730.78" y1="42.09" x2="-729.78" y2="42.09" gradientTransform="matrix(144.71, 0, 0, -144.71, 105709.96, 6160.98)" gradientUnits="userSpaceOnUse"><stop offset="0" stop-color="#d0ac49"/><stop offset="1" stop-color="#dbbd4b"/></linearGradient></defs><title>guy</title><g class="cls-2"><rect class="cls-3" x="-40" y="-2.39" width="144.72" height="144.72" transform="translate(29.97 75.73) rotate(-45)"/></g></svg>