<?xml version="1.0" encoding="utf-8"?>
<!-- Generator: Adobe Illustrator 22.1.0, SVG Export Plug-In . SVG Version: 6.00 Build 0)  -->
<svg version="1.1" id="Layer_1" xmlns="http://www.w3.org/2000/svg" xmlns:xlink="http://www.w3.org/1999/xlink" x="0px" y="0px"
	 viewBox="0 0 373.8 494.3" style="enable-background:new 0 0 373.8 494.3;" xml:space="preserve">
<style type="text/css">
	.st0{clip-path:url(#SVGID_2_);}
	.st1{clip-path:url(#SVGID_5_);}
	.st2{clip-path:url(#SVGID_6_);}
	.st3{fill:url(#SVGID_7_);}
	.st4{opacity:0.25;}
	.st5{clip-path:url(#SVGID_9_);}
	.st6{fill:#836928;}
	.st7{opacity:0.45;}
	.st8{clip-path:url(#SVGID_11_);}
	.st9{fill:#FFFFFF;}
</style>
<title>kapy</title>
<g>
	<defs>
		<rect id="SVGID_1_" width="373.8" height="494.3"/>
	</defs>
	<clipPath id="SVGID_2_">
		<use xlink:href="#SVGID_1_"  style="overflow:visible;"/>
	</clipPath>
	<g class="st0">
		<g>
			<defs>
				<path id="SVGID_3_" d="M165.1,429.4c-17.9,5.2-31,16.1-39,32.5c-3,6.1-4.6,12.8-4.8,19.5c21.8,8.6,43.8,13,65.4,13l0,0
					c21.8,0,43.8-4.4,65.6-13.1v-0.3c-0.6-13.8-6.7-26.8-17-36c-13.8-12.7-29.6-19.1-46.9-19.1C180.5,425.9,172.7,427.1,165.1,429.4
					 M98.8,472c-7.1-24.9-33.2-46.8-59.7-50C54.8,443,74.4,459.4,98.8,472 M275,472c24.5-12.6,44.1-29,59.8-50
					C308.3,425.2,282.1,447.1,275,472 M83.5,349.5c-24.3,9.5-37.7,27.8-39.6,54.3c-0.1,1.1,0,2.2,0.1,3.3h0.2
					c26.8,4,47.2,17.8,60.6,40.9c1.5,2.7,2.8,5.5,3.8,8.4c0.5,1.3,1,2.5,1.5,3.8c0.1,0.2,0.1,0.4,0.2,0.5c0.2-0.2,0.3-0.4,0.4-0.6
					l0.2-0.2v-0.3c0-0.3,0.1-0.6,0.2-0.9c1.8-6.2,4.6-12.1,8.3-17.5c11.2-15.8,27.4-25.6,48.3-29.4c2.4-0.4,4.8-0.7,7.3-0.9l1.7-0.2
					c0-1.2-0.1-2.5-0.2-3.7c-1.5-13.1-6.7-25.6-15.2-35.8c-13.4-16.3-33.3-25.8-54.4-26C98.7,345.1,90.9,346.6,83.5,349.5
					 M212.6,371.2c-8.5,10.2-13.7,22.6-15.2,35.8c-0.1,1.2-0.2,2.4-0.2,3.7l1.7,0.2c2.5,0.3,4.9,0.5,7.3,0.9
					c20.9,3.8,37.1,13.7,48.3,29.4c3.7,5.3,6.5,11.2,8.3,17.5c0.1,0.3,0.1,0.6,0.2,0.9c0,0.1,0,0.2,0,0.3l0.2,0.2
					c0.1,0.2,0.3,0.4,0.4,0.6c0.1-0.2,0.2-0.4,0.2-0.5c0.5-1.2,1-2.5,1.5-3.8c1.1-2.9,2.4-5.7,3.9-8.4
					c13.4-23.1,33.8-36.9,60.6-40.9h0.2c0.1-1.1,0.2-2.2,0.1-3.3c-2-26.5-15.3-44.8-39.6-54.3c-7.4-2.9-15.3-4.4-23.3-4.3
					C246,345.3,226,354.8,212.6,371.2 M2.9,269.6c-1.1,0.6-1.5,1.1-1.6,1.8l-0.1-0.1c0,0-10,72.8,28.6,136.6
					c-0.3-10.7,1.1-21.4,4.2-31.7c0.4-1.2,0.8-2.4,1.2-3.5c6.4-17.6,17.5-28.5,28.7-35.1c0.3-0.1,0.5-0.3,0.8-0.5c1-0.6,2-1.1,3-1.6
					v-0.1c6.3-3.1,13-5.3,19.9-6.7c2.5-0.5,5-0.8,7.5-1.1l1.6-0.2c0-0.6,0-1.2-0.1-1.8c-0.3-1.5-0.5-2.9-0.7-4.4
					c-0.4-3.7-1.2-7.4-2.3-11c-9-26.8-26.8-42.9-52.7-47.6c-3.2-0.6-6.5-0.9-9.8-0.9C21.2,261.8,11.5,264.5,2.9,269.6 M332.9,262.6
					c-26,4.8-43.7,20.8-52.6,47.6c-1.1,3.6-1.8,7.3-2.3,11c-0.2,1.5-0.4,2.9-0.7,4.4c-0.1,0.6-0.1,1.2-0.1,1.8l1.6,0.2
					c2.5,0.3,5,0.5,7.5,1.1c6.9,1.4,13.6,3.7,19.9,6.7v0.1c1,0.5,2,1,3,1.6c0.3,0.1,0.5,0.3,0.8,0.5c11.2,6.6,22.3,17.5,28.7,35.1
					c0.4,1.1,0.8,2.3,1.2,3.5c3,10.3,4.4,21,4.1,31.8c25.3-41.9,29.7-87.5,29.8-114v-1c0.1-7.2-0.3-14.4-1.1-21.6l-0.1,0.1
					c-0.2-0.6-0.5-1.1-1.6-1.8c-8.5-5.1-18.3-7.8-28.2-7.9C339.3,261.7,336.1,262.1,332.9,262.6 M145.4,274.5
					c-17,12-30.1,37.4-27.8,53.3l1.2,0.1c23,2.3,41.7,12.6,55.7,30.8c5.5,7.2,9.5,15.3,11.8,24.1v0.2c0.1,0.4,0.2,0.7,0.4,1.1l0,0
					c0.2-0.4,0.4-0.9,0.5-1.3c0.1-0.3,0.1-0.5,0.3-0.9c9.5-29.1,30.1-47,61.2-53.3c2-0.4,4.1-0.6,6.3-0.9l1.3-0.1
					c-1.7-26.2-13.5-45.6-35.1-57.6c-11.5-6.4-23.2-9.7-34.7-9.7C172.5,260.3,158.7,265.1,145.4,274.5 M2.9,251
					c6-2.4,12.4-3.9,18.8-4.7c-0.4-14.2-4-26-11.2-36.8C7,223.2,4.4,237,2.9,251 M352.1,246.3c6.4,0.7,12.8,2.3,18.8,4.7
					c-1.5-14-4-27.8-7.6-41.5C356.1,220.3,352.5,232.2,352.1,246.3 M61.7,200.3c-12.3,12.4-19.8,29.3-20.3,45.5l2.6,0.3
					c3.2,0.4,6.4,0.9,9.6,1.7c26.6,7.1,44.4,24.5,52.7,51.4c0.1,0.4,0.2,0.8,0.3,1.2s0.3,1.2,0.3,1.3h0.2l0.1,0.1
					c0.2-0.4,0.3-0.9,0.4-1.3c0.1-0.4,0.2-0.8,0.3-1.1c8.8-30.3,35.5-52,66.9-54.3l1.5-0.2c-0.1-15.8-6.9-32.3-18.5-44.4
					c-12-12.7-28.7-20-46.2-20.1H110C91.9,180.2,74.5,187.4,61.7,200.3 M262.2,180.3c-17.5,0.1-34.2,7.4-46.2,20.1
					c-11.6,12.1-18.4,28.6-18.5,44.4l1.5,0.2c31.5,2.4,58.2,24,67,54.4c0.1,0.4,0.2,0.7,0.3,1.1c0.1,0.5,0.2,0.9,0.4,1.3l0.1-0.1
					h0.2c0-0.1,0.2-0.8,0.3-1.3s0.2-0.8,0.3-1.2c8.3-26.9,26.1-44.2,52.7-51.4c3.1-0.8,6.3-1.3,9.6-1.7l2.6-0.3
					c-0.4-16.2-7.9-33.1-20.3-45.6c-12.8-12.9-30.2-20.1-48.3-20L262.2,180.3 M16.9,187.7c-0.3,0.7-0.2,1,0.5,1.8
					c6.9,8,11.7,17.7,14.1,28c0.1,0.3,0.1,0.5,0.1,0.8s0,0.3,0.1,0.4l0.1,0.2l0.1-0.2c0.1-0.3,0.2-0.6,0.3-0.9
					c0.1-0.3,0.2-0.7,0.3-1C41.8,189.4,60.7,172,89,165c2.4-0.6,4.9-1,7.4-1.3l1.6-0.2c1.3-19.6-12-47.7-41.5-53.2
					C39.7,134,26.4,160.1,16.9,187.7 M275.8,163.5l1.6,0.2c2.4,0.4,4.9,0.7,7.4,1.3c28.2,7,47.2,24.4,56.4,51.7
					c0.1,0.3,0.2,0.7,0.3,1c0.1,0.3,0.2,0.6,0.3,0.9l0.1,0.2l0.1-0.2c0-0.1,0-0.3,0.1-0.4c0.1-0.1,0.1-0.5,0.1-0.8
					c2.3-10.3,7.2-20,14.1-28c0.7-0.8,0.7-1.1,0.5-1.8c-9.4-27.6-22.8-53.6-39.6-77.4C287.8,115.8,274.5,143.9,275.8,163.5
					 M164.8,106c-25.3,8.6-40.6,26.1-45.4,51.9c-0.2,1.6-0.4,3.1-0.5,4.7v0.3l0.6,0.1c1.8,0.1,3.5,0.3,5.2,0.6
					c31.2,4.7,51.8,22,61.4,51.4c0.1,0.3,0.2,0.5,0.2,0.8c0.1,0.4,0.3,0.9,0.4,1.3c0,0,0,0.1,0.1,0.1l0.1-0.1
					c0.2-0.5,0.4-1.1,0.6-1.7c0.1-0.4,0.2-0.8,0.4-1.2c8.8-27,27.6-43.7,55.9-49.8c2.9-0.6,5.9-1,8.8-1.3l2.3-0.3
					c-0.8-11.1-4.6-21.8-10.8-30.9C226.3,106.6,194.1,96.1,164.8,106 M119.9,42.7c-19.4,15.8-37,33.6-52.6,53.2L67,96.3l0.5,0.1
					c21.3,5.8,35.3,19.4,41.4,40.5c0.1,0.3,0.2,0.6,0.2,0.9c0.1,0.4,0.2,0.8,0.4,1.2l0,0c0.2-0.3,0.3-0.7,0.4-1.1
					c0.1-0.3,0.2-0.6,0.3-1c0.3-0.8,0.7-1.7,1-2.6c0.7-2,1.6-4,2.5-5.9c10.5-20.6,28.1-33.6,52.4-38.9c2.8-0.6,5.7-1,8.5-1.3
					l2.3-0.3c-0.4-11.3-5-22.1-13-30.2c-10.3-10.6-23.8-16.1-41.3-16.8C121.7,41.2,121.1,41.7,119.9,42.7 M209.9,58
					c-7.9,8.1-12.6,18.8-13,30.2l2.3,0.3c2.8,0.3,5.7,0.7,8.5,1.3c24.2,5.3,41.8,18.4,52.4,38.9c0.9,1.9,1.8,3.9,2.5,5.9
					c0.3,0.9,0.6,1.7,1,2.6c0.1,0.3,0.2,0.7,0.3,1c0.1,0.4,0.3,0.7,0.4,1.1l0,0c0.2-0.4,0.3-0.8,0.4-1.2c0.1-0.3,0.1-0.6,0.2-0.9
					c6.1-21.1,20-34.7,41.4-40.5l0.5-0.1l-0.4-0.5c-15.6-19.5-33.2-37.4-52.6-53.2c-1.2-1-1.8-1.5-2.7-1.5
					C233.7,41.9,220.2,47.4,209.9,58 M186.4,0c-0.8,0.1-1.6,0.3-2.3,0.7c-16,8.1-31.4,17.5-45.9,28c6,0.8,11.9,2.3,17.4,4.7
					c15.3,6.4,25.6,16.9,30.6,31.3c0.1,0.2,0.1,0.3,0.1,0.5l0.4,0.4c0.2-0.2,0.4-0.4,0.6-0.6l0,0c0-0.1,0-0.2,0.1-0.3
					c0.1-0.3,0.1-0.5,0.2-0.8c2.9-8,7.8-15.2,14.3-20.7c8.9-7.7,19.7-12.4,33-14.3c-14.6-10.6-30-20-46.2-28.2
					c-0.7-0.4-1.4-0.6-2.2-0.6H186.4z"/>
			</defs>
			<defs>
				<path id="SVGID_4_" d="M165.1,429.4c-17.9,5.2-31,16.1-39,32.5c-3,6.1-4.6,12.8-4.8,19.5c21.8,8.6,43.8,13,65.4,13l0,0
					c21.8,0,43.8-4.4,65.6-13.1v-0.3c-0.6-13.8-6.7-26.8-17-36c-13.8-12.7-29.6-19.1-46.9-19.1C180.5,425.9,172.7,427.1,165.1,429.4
					 M98.8,472c-7.1-24.9-33.2-46.8-59.7-50C54.8,443,74.4,459.4,98.8,472 M275,472c24.5-12.6,44.1-29,59.8-50
					C308.3,425.2,282.1,447.1,275,472 M83.5,349.5c-24.3,9.5-37.7,27.8-39.6,54.3c-0.1,1.1,0,2.2,0.1,3.3h0.2
					c26.8,4,47.2,17.8,60.6,40.9c1.5,2.7,2.8,5.5,3.8,8.4c0.5,1.3,1,2.5,1.5,3.8c0.1,0.2,0.1,0.4,0.2,0.5c0.2-0.2,0.3-0.4,0.4-0.6
					l0.2-0.2v-0.3c0-0.3,0.1-0.6,0.2-0.9c1.8-6.2,4.6-12.1,8.3-17.5c11.2-15.8,27.4-25.6,48.3-29.4c2.4-0.4,4.8-0.7,7.3-0.9l1.7-0.2
					c0-1.2-0.1-2.5-0.2-3.7c-1.5-13.1-6.7-25.6-15.2-35.8c-13.4-16.3-33.3-25.8-54.4-26C98.7,345.1,90.9,346.6,83.5,349.5
					 M212.6,371.2c-8.5,10.2-13.7,22.6-15.2,35.8c-0.1,1.2-0.2,2.4-0.2,3.7l1.7,0.2c2.5,0.3,4.9,0.5,7.3,0.9
					c20.9,3.8,37.1,13.7,48.3,29.4c3.7,5.3,6.5,11.2,8.3,17.5c0.1,0.3,0.1,0.6,0.2,0.9c0,0.1,0,0.2,0,0.3l0.2,0.2
					c0.1,0.2,0.3,0.4,0.4,0.6c0.1-0.2,0.2-0.4,0.2-0.5c0.5-1.2,1-2.5,1.5-3.8c1.1-2.9,2.4-5.7,3.9-8.4
					c13.4-23.1,33.8-36.9,60.6-40.9h0.2c0.1-1.1,0.2-2.2,0.1-3.3c-2-26.5-15.3-44.8-39.6-54.3c-7.4-2.9-15.3-4.4-23.3-4.3
					C246,345.3,226,354.8,212.6,371.2 M2.9,269.6c-1.1,0.6-1.5,1.1-1.6,1.8l-0.1-0.1c0,0-10,72.8,28.6,136.6
					c-0.3-10.7,1.1-21.4,4.2-31.7c0.4-1.2,0.8-2.4,1.2-3.5c6.4-17.6,17.5-28.5,28.7-35.1c0.3-0.1,0.5-0.3,0.8-0.5c1-0.6,2-1.1,3-1.6
					v-0.1c6.3-3.1,13-5.3,19.9-6.7c2.5-0.5,5-0.8,7.5-1.1c0.5-0.1,1.1-0.1,1.6-0.2c0-0.6,0-1.2-0.1-1.8c-0.3-1.5-0.5-2.9-0.7-4.4
					c-0.4-3.7-1.2-7.4-2.3-11c-9-26.8-26.8-42.9-52.7-47.6c-3.2-0.6-6.5-0.9-9.8-0.9C21.2,261.8,11.5,264.5,2.9,269.6 M332.9,262.6
					c-26,4.8-43.7,20.8-52.6,47.6c-1.1,3.6-1.8,7.3-2.3,11c-0.2,1.5-0.4,2.9-0.7,4.4c-0.1,0.6-0.1,1.2-0.1,1.8l1.6,0.2
					c2.5,0.3,5,0.5,7.5,1.1c6.9,1.4,13.6,3.7,19.9,6.7v0.1c1,0.5,2,1,3,1.6c0.3,0.1,0.5,0.3,0.8,0.5c11.2,6.6,22.3,17.5,28.7,35.1
					c0.4,1.1,0.8,2.3,1.2,3.5c3,10.3,4.4,21,4.1,31.8c25.3-41.9,29.7-87.5,29.8-114v-1c0.1-7.2-0.3-14.4-1.1-21.6l-0.1,0.1
					c-0.2-0.6-0.5-1.1-1.6-1.8c-8.5-5.1-18.3-7.8-28.2-7.9C339.3,261.7,336.1,262.1,332.9,262.6 M145.4,274.5
					c-17,12-30.1,37.4-27.8,53.3l1.2,0.1c23,2.3,41.7,12.6,55.7,30.8c5.5,7.2,9.5,15.3,11.8,24.1v0.2c0.1,0.4,0.2,0.7,0.4,1.1l0,0
					c0.2-0.4,0.4-0.9,0.5-1.3c0.1-0.3,0.1-0.5,0.3-0.9c9.5-29.1,30.1-47,61.2-53.3c2-0.4,4.1-0.6,6.3-0.9l1.3-0.1
					c-1.7-26.2-13.5-45.6-35.1-57.6c-11.5-6.4-23.2-9.7-34.7-9.7C172.5,260.3,158.7,265.1,145.4,274.5 M2.9,251
					c6-2.4,12.4-3.9,18.8-4.7c-0.4-14.2-4-26-11.2-36.8C7,223.2,4.4,237,2.9,251 M352.1,246.3c6.4,0.7,12.8,2.3,18.8,4.7
					c-1.5-14-4-27.8-7.6-41.5C356.1,220.3,352.5,232.2,352.1,246.3 M61.7,200.3c-12.3,12.4-19.8,29.3-20.3,45.5l2.6,0.3
					c3.2,0.4,6.4,0.9,9.6,1.7c26.6,7.1,44.4,24.5,52.7,51.4c0.1,0.4,0.2,0.8,0.3,1.2s0.3,1.2,0.3,1.3h0.2l0.1,0.1
					c0.2-0.4,0.3-0.9,0.4-1.3c0.1-0.4,0.2-0.8,0.3-1.1c8.8-30.3,35.5-52,66.9-54.3l1.5-0.2c-0.1-15.8-6.9-32.3-18.5-44.4
					c-12-12.7-28.7-20-46.2-20.1H110C91.9,180.2,74.5,187.4,61.7,200.3 M262.2,180.3c-17.5,0.1-34.2,7.4-46.2,20.1
					c-11.6,12.1-18.4,28.6-18.5,44.4l1.5,0.2c31.5,2.4,58.2,24,67,54.4c0.1,0.4,0.2,0.7,0.3,1.1c0.1,0.5,0.2,0.9,0.4,1.3l0.1-0.1
					h0.2c0-0.1,0.2-0.8,0.3-1.3s0.2-0.8,0.3-1.2c8.3-26.9,26.1-44.2,52.7-51.4c3.1-0.8,6.3-1.3,9.6-1.7l2.6-0.3
					c-0.4-16.2-7.9-33.1-20.3-45.6c-12.8-12.9-30.2-20.1-48.3-20L262.2,180.3 M16.9,187.7c-0.3,0.7-0.2,1,0.5,1.8
					c6.9,8,11.7,17.7,14.1,28c0.1,0.3,0.1,0.5,0.1,0.8s0,0.3,0.1,0.4l0.1,0.2l0.1-0.2c0.1-0.3,0.2-0.6,0.3-0.9
					c0.1-0.3,0.2-0.7,0.3-1C41.8,189.4,60.7,172,89,165c2.4-0.6,4.9-1,7.4-1.3l1.6-0.2c1.3-19.6-12-47.7-41.5-53.2
					C39.7,134,26.4,160.1,16.9,187.7 M275.8,163.5l1.6,0.2c2.4,0.4,4.9,0.7,7.4,1.3c28.2,7,47.2,24.4,56.4,51.7
					c0.1,0.3,0.2,0.7,0.3,1c0.1,0.3,0.2,0.6,0.3,0.9l0.1,0.2l0.1-0.2c0-0.1,0-0.3,0.1-0.4c0.1-0.1,0.1-0.5,0.1-0.8
					c2.3-10.3,7.2-20,14.1-28c0.7-0.8,0.7-1.1,0.5-1.8c-9.4-27.6-22.8-53.6-39.6-77.4C287.8,115.8,274.5,143.9,275.8,163.5
					 M164.8,106c-25.3,8.6-40.6,26.1-45.4,51.9c-0.2,1.6-0.4,3.1-0.5,4.7v0.3l0.6,0.1c1.8,0.1,3.5,0.3,5.2,0.6
					c31.2,4.7,51.8,22,61.4,51.4c0.1,0.3,0.2,0.5,0.2,0.8c0.1,0.4,0.3,0.9,0.4,1.3c0,0,0,0.1,0.1,0.1l0.1-0.1
					c0.2-0.5,0.4-1.1,0.6-1.7c0.1-0.4,0.2-0.8,0.4-1.2c8.8-27,27.6-43.7,55.9-49.8c2.9-0.6,5.9-1,8.8-1.3l2.3-0.3
					c-0.8-11.1-4.6-21.8-10.8-30.9C226.3,106.6,194.1,96.1,164.8,106 M119.9,42.7c-19.4,15.8-37,33.6-52.6,53.2L67,96.3l0.5,0.1
					c21.3,5.8,35.3,19.4,41.4,40.5c0.1,0.3,0.2,0.6,0.2,0.9c0.1,0.4,0.2,0.8,0.4,1.2l0,0c0.2-0.3,0.3-0.7,0.4-1.1
					c0.1-0.3,0.2-0.6,0.3-1c0.3-0.8,0.7-1.7,1-2.6c0.7-2,1.6-4,2.5-5.9c10.5-20.6,28.1-33.6,52.4-38.9c2.8-0.6,5.7-1,8.5-1.3
					l2.3-0.3c-0.4-11.3-5-22.1-13-30.2c-10.3-10.6-23.8-16.1-41.3-16.8C121.7,41.2,121.1,41.7,119.9,42.7 M209.9,58
					c-7.9,8.1-12.6,18.8-13,30.2l2.3,0.3c2.8,0.3,5.7,0.7,8.5,1.3c24.2,5.3,41.8,18.4,52.4,38.9c0.9,1.9,1.8,3.9,2.5,5.9
					c0.3,0.9,0.6,1.7,1,2.6c0.1,0.3,0.2,0.7,0.3,1c0.1,0.4,0.3,0.7,0.4,1.1l0,0c0.2-0.4,0.3-0.8,0.4-1.2c0.1-0.3,0.1-0.6,0.2-0.9
					c6.1-21.1,20-34.7,41.4-40.5l0.5-0.1l-0.4-0.5c-15.6-19.5-33.2-37.4-52.6-53.2c-1.2-1-1.8-1.5-2.7-1.5
					C233.7,41.9,220.2,47.4,209.9,58 M186.4,0c-0.8,0.1-1.6,0.3-2.3,0.7c-16,8.1-31.4,17.5-45.9,28c6,0.8,11.9,2.3,17.4,4.7
					c15.3,6.4,25.6,16.9,30.6,31.3c0.1,0.2,0.1,0.3,0.1,0.5l0.4,0.4c0.2-0.2,0.4-0.4,0.6-0.6l0,0c0-0.1,0-0.2,0.1-0.3
					c0.1-0.3,0.1-0.5,0.2-0.8c2.9-8,7.8-15.2,14.3-20.7c8.9-7.7,19.7-12.4,33-14.3c-14.6-10.6-30-20-46.2-28.2
					c-0.7-0.4-1.4-0.6-2.2-0.6H186.4z"/>
			</defs>
			<clipPath id="SVGID_5_">
				<use xlink:href="#SVGID_3_"  style="overflow:visible;"/>
			</clipPath>
			<clipPath id="SVGID_6_" class="st1">
				<use xlink:href="#SVGID_4_"  style="overflow:visible;"/>
			</clipPath>
			<g class="st2">
				
					<radialGradient id="SVGID_7_" cx="-505.8726" cy="496.5624" r="1" gradientTransform="matrix(-247.16 0 0 -326.82 -124844.2969 162533.1094)" gradientUnits="userSpaceOnUse">
					<stop  offset="0" style="stop-color:#DBBD4B"/>
					<stop  offset="0.26" style="stop-color:#D1B348"/>
					<stop  offset="0.64" style="stop-color:#BC9C42"/>
					<stop  offset="1" style="stop-color:#836928"/>
				</radialGradient>
				<rect x="-8.8" class="st3" width="382.6" height="494.3"/>
				<g>
					<g>
						<g class="st4">
							<defs>
								<rect id="SVGID_8_" x="-208.2" y="56.3" class="st4" width="573.3" height="496.4"/>
							</defs>
							<clipPath id="SVGID_9_">
								<use xlink:href="#SVGID_8_"  style="overflow:visible;"/>
							</clipPath>
							<g class="st5">
								<path class="st6" d="M88.4,63.3c0,0-153,264.8,2.9,382.5c128.7,97.1,264.8-52.2,264.8-52.2l-71.7,158.1l-450.5-34.9
									L-199.2,353L32.5,69.9L88.4,63.3z"/>
							</g>
						</g>
						<g id="Layer_1-2">
							<g class="st7">
								<defs>
									<rect id="SVGID_10_" x="-21" y="-91.8" class="st7" width="603.6" height="687.4"/>
								</defs>
								<clipPath id="SVGID_11_">
									<use xlink:href="#SVGID_10_"  style="overflow:visible;"/>
								</clipPath>
								<g class="st8">
									<path class="st9" d="M-12-20.4c0,0,407.1,168.7,347.6,615.1c0,0,369-280.3,187.9-540.7S-12-20.4-12-20.4"/>
								</g>
							</g>
						</g>
					</g>
				</g>
			</g>
		</g>
	</g>
</g>
</svg>
